<svg width="17" height="17" viewBox="0 0 17 17" fill="none" xmlns="http://www.w3.org/2000/svg">
<path d="M15.6719 0.53125H1.32812C0.741322 0.53125 0.265625 1.00695 0.265625 1.59375V15.9375C0.265625 16.5243 0.741322 17 1.32812 17H15.6719C16.2587 17 16.7344 16.5243 16.7344 15.9375V1.59375C16.7344 1.00695 16.2587 0.53125 15.6719 0.53125Z" fill="#E21743"/>
<path d="M10.0919 6.90625V8.23438L8.76562 8.76562L10.0919 9.29688V10.625L11.1528 9.5625L12.4788 9.82812L11.6833 8.76562L12.4844 7.41758L11.1528 7.96875L10.0919 6.90625Z" fill="#E9EDF5"/>
<path d="M9.29701 6.90625C8.94906 6.33798 8.46102 5.86858 7.87964 5.54301C7.29826 5.21743 6.64303 5.0466 5.97669 5.04688C5.30491 5.05107 4.6459 5.2309 4.0651 5.56852C3.4843 5.90613 3.00191 6.38979 2.66582 6.97148C2.32973 7.55316 2.15163 8.21264 2.1492 8.88443C2.14676 9.55622 2.32009 10.217 2.65197 10.8011C2.98384 11.3852 3.46272 11.8723 4.04106 12.2141C4.61941 12.5559 5.27709 12.7405 5.94883 12.7496C6.62057 12.7586 7.28299 12.5918 7.87033 12.2657C8.45768 11.9396 8.94951 11.4656 9.29701 10.8906C8.50013 11.6875 7.89557 11.6875 6.90638 11.6875C6.13145 11.6875 5.38826 11.3797 4.8403 10.8317C4.29235 10.2837 3.98451 9.54055 3.98451 8.76563C3.98451 7.9907 4.29235 7.24751 4.8403 6.69955C5.38826 6.15159 6.13145 5.84375 6.90638 5.84375C7.35716 5.84284 7.80307 5.93699 8.215 6.12007C8.62692 6.30315 8.99562 6.57104 9.29701 6.90625Z" fill="#E9EDF5"/>
<path d="M10.8906 10.625H6.10938C5.55785 10.6249 5.00911 10.5468 4.4795 10.3928C4.74646 10.7914 5.10755 11.1181 5.53083 11.3439C5.9541 11.5697 6.42651 11.6877 6.90625 11.6875C7.89544 11.6875 8.5 11.6875 9.29688 10.8906C8.94906 11.459 8.46105 11.9285 7.87965 12.2541C7.29824 12.5797 6.64293 12.7505 5.97657 12.75C4.984 12.7495 4.03001 12.3655 3.31384 11.6783C2.59766 10.9911 2.17468 10.0538 2.13324 9.06206C1.5435 8.51593 1.07314 7.85369 0.751733 7.11698C0.430324 6.38026 0.26482 5.58502 0.265628 4.78125V15.9375C0.265628 16.2193 0.37757 16.4895 0.576827 16.6888C0.776084 16.8881 1.04634 17 1.32813 17H15.6719C15.9537 17 16.2239 16.8881 16.4232 16.6888C16.6224 16.4895 16.7344 16.2193 16.7344 15.9375V4.78125C16.7344 6.33111 16.1187 7.81749 15.0228 8.91341C13.9269 10.0093 12.4405 10.625 10.8906 10.625Z" fill="#C7002B"/>
<path d="M5.97663 12.7499C6.64299 12.7504 7.2983 12.5796 7.87971 12.2541C8.46112 11.9285 8.94913 11.459 9.29694 10.8906C8.50007 11.6874 7.8955 11.6874 6.90632 11.6874C6.42657 11.6877 5.95417 11.5697 5.53089 11.3439C5.10762 11.1181 4.74653 10.7914 4.47957 10.3928C3.60422 10.1387 2.80063 9.68288 2.1333 9.06201C2.17475 10.0537 2.59773 10.991 3.3139 11.6783C4.03008 12.3655 4.98407 12.7494 5.97663 12.7499Z" fill="#DCE1EB"/>
<path d="M15.6719 15.9375H1.32812C1.04633 15.9375 0.776081 15.8256 0.576824 15.6263C0.377567 15.427 0.265625 15.1568 0.265625 14.875V15.9375C0.265625 16.2193 0.377567 16.4895 0.576824 16.6888C0.776081 16.8881 1.04633 17 1.32812 17H15.6719C15.9537 17 16.2239 16.8881 16.4232 16.6888C16.6224 16.4895 16.7344 16.2193 16.7344 15.9375V14.875C16.7344 15.1568 16.6224 15.427 16.4232 15.6263C16.2239 15.8256 15.9537 15.9375 15.6719 15.9375Z" fill="#B51135"/>
<path d="M15.6719 0.53125H1.32812C1.04633 0.53125 0.776081 0.643192 0.576824 0.842449C0.377567 1.04171 0.265625 1.31196 0.265625 1.59375V2.65625C0.265625 2.37446 0.377567 2.10421 0.576824 1.90495C0.776081 1.70569 1.04633 1.59375 1.32812 1.59375H15.6719C15.9537 1.59375 16.2239 1.70569 16.4232 1.90495C16.6224 2.10421 16.7344 2.37446 16.7344 2.65625V1.59375C16.7344 1.31196 16.6224 1.04171 16.4232 0.842449C16.2239 0.643192 15.9537 0.53125 15.6719 0.53125Z" fill="#ED6B2C"/>
</svg>
